<svg width="24" height="24" viewBox="0 0 24 24" fill="none" xmlns="http://www.w3.org/2000/svg">
<path fill-rule="evenodd" clip-rule="evenodd" d="M3.35897 2.38477C2.60843 2.38477 2 2.9932 2 3.74374V20.2566C2 21.0071 2.60843 21.6155 3.35897 21.6155H4.12389L14.5482 11.1912L14.5483 11.1911C15.1782 10.5614 16.0324 10.2077 16.9231 10.2077C17.8138 10.2077 18.668 10.5614 19.2979 11.1911L19.298 11.1912L21.2308 13.124V3.74374C21.2308 2.9932 20.6223 2.38477 19.8718 2.38477H3.35897ZM23.2308 15.5373V3.74374C23.2308 1.88863 21.7269 0.384766 19.8718 0.384766H3.35897C1.50386 0.384766 0 1.88863 0 3.74374V20.2566C0 22.1117 1.50386 23.6155 3.35897 23.6155H19.8718C21.7269 23.6155 23.2308 22.1117 23.2308 20.2566V15.5392C23.2308 15.5386 23.2308 15.5379 23.2308 15.5373ZM21.2308 15.9525L17.8839 12.6056L17.8838 12.6055C17.6289 12.3508 17.2834 12.2077 16.9231 12.2077C16.5628 12.2077 16.2172 12.3508 15.9624 12.6055L15.9623 12.6056L6.95232 21.6155H19.8718C20.6223 21.6155 21.2308 21.0071 21.2308 20.2566V15.9525ZM8.07692 7.10271C7.32638 7.10271 6.71795 7.71115 6.71795 8.46169C6.71795 9.21223 7.32638 9.82066 8.07692 9.82066C8.82746 9.82066 9.4359 9.21223 9.4359 8.46169C9.4359 7.71115 8.82746 7.10271 8.07692 7.10271ZM4.71795 8.46169C4.71795 6.60658 6.22181 5.10271 8.07692 5.10271C9.93203 5.10271 11.4359 6.60658 11.4359 8.46169C11.4359 10.3168 9.93203 11.8207 8.07692 11.8207C6.22181 11.8207 4.71795 10.3168 4.71795 8.46169Z" fill="#487153"/>
</svg>
