<svg width="24" height="24" viewBox="0 0 24 24" fill="none" xmlns="http://www.w3.org/2000/svg">
<path d="M6 18C6 17.4696 6.21071 16.9609 6.58578 16.5858C6.96086 16.2107 7.46956 16 7.99999 16H18.8" stroke="#487153" stroke-width="1.5" stroke-linecap="round" stroke-linejoin="round"/>
<path d="M7.99999 4H18.8V20H7.99999C7.46956 20 6.96086 19.7892 6.58578 19.4142C6.21071 19.0391 6 18.5304 6 18V5.99999C6 5.46956 6.21071 4.96086 6.58578 4.58578C6.96086 4.21071 7.46956 4 7.99999 4V4Z" stroke="#487153" stroke-width="1.5" stroke-linecap="round" stroke-linejoin="round"/>
<path d="M8 4H18C18.5523 4 19 4.44772 19 5V15C19 15.5523 18.5523 16 18 16H9.09902C9.03317 16 8.96652 15.9929 8.90167 15.9815C6.9726 15.6407 6.16391 16.8444 6 17.5V6C6 4.4 7.33333 4 8 4Z" fill="#487153"/>
</svg>
