<svg width="227" height="46" viewBox="0 0 227 46" fill="none" xmlns="http://www.w3.org/2000/svg">
<mask id="path-1-inside-1_3987_20677" fill="white">
<path fill-rule="evenodd" clip-rule="evenodd" d="M15 0C10.5817 0 7 3.58172 7 8V29L0 38H7C7 42.4183 10.5817 46 15 46H219C223.419 46 227 42.4183 227 38V8C227 3.58172 223.419 0 219 0H15Z"/>
</mask>
<path fill-rule="evenodd" clip-rule="evenodd" d="M15 0C10.5817 0 7 3.58172 7 8V29L0 38H7C7 42.4183 10.5817 46 15 46H219C223.419 46 227 42.4183 227 38V8C227 3.58172 223.419 0 219 0H15Z" fill="#FFFBEA"/>
<path d="M7 29L7.78935 29.6139L8 29.3431V29H7ZM0 38L-0.789352 37.3861L-2.04464 39H0V38ZM7 38H8V37H7V38ZM8 8C8 4.13401 11.134 1 15 1V-1C10.0294 -1 6 3.02944 6 8H8ZM8 29V8H6V29H8ZM6.21065 28.3861L-0.789352 37.3861L0.789352 38.6139L7.78935 29.6139L6.21065 28.3861ZM0 39H7V37H0V39ZM15 45C11.134 45 8 41.866 8 38H6C6 42.9706 10.0294 47 15 47V45ZM219 45H15V47H219V45ZM226 38C226 41.866 222.866 45 219 45V47C223.971 47 228 42.9706 228 38H226ZM226 8V38H228V8H226ZM219 1C222.866 1 226 4.13401 226 8H228C228 3.02944 223.971 -1 219 -1V1ZM15 1H219V-1H15V1Z" fill="#E1E1E1" mask="url(#path-1-inside-1_3987_20677)"/>
</svg>
