<svg width="16" height="15" viewBox="0 0 16 15" fill="none" xmlns="http://www.w3.org/2000/svg">
<path d="M7.97251 14.1568H14.9729M11.3763 1.41768C11.6859 1.10804 12.1059 0.934082 12.5438 0.934082C12.9817 0.934082 13.4016 1.10804 13.7113 1.41768C14.0209 1.72732 14.1949 2.14729 14.1949 2.58519C14.1949 3.02309 14.0209 3.44306 13.7113 3.7527L4.36964 13.0951C4.1846 13.2801 3.95586 13.4155 3.70461 13.4887L1.47071 14.1405C1.40378 14.16 1.33283 14.1612 1.26529 14.1439C1.19775 14.1266 1.13611 14.0914 1.08681 14.0421C1.03751 13.9928 1.00237 13.9312 0.985068 13.8637C0.967765 13.7961 0.968936 13.7252 0.988457 13.6583L1.64027 11.4243C1.71356 11.1734 1.84892 10.9449 2.03385 10.7601L11.3763 1.41768Z" stroke="#487153" stroke-width="1.23963" stroke-linecap="round" stroke-linejoin="round"/>
</svg>
