<svg width="30" height="28" viewBox="0 0 30 28" fill="none" xmlns="http://www.w3.org/2000/svg">
<path d="M14.9488 26.4925H28.0161M21.3024 2.71278C21.8804 2.13478 22.6643 1.81006 23.4818 1.81006C24.2992 1.81006 25.0831 2.13478 25.6611 2.71278C26.2391 3.29078 26.5638 4.07471 26.5638 4.89213C26.5638 5.70954 26.2391 6.49348 25.6611 7.07148L8.2234 24.5106C7.87798 24.8561 7.45101 25.1087 6.982 25.2453L2.81205 26.462C2.68711 26.4985 2.55468 26.5007 2.42861 26.4684C2.30254 26.4361 2.18747 26.3705 2.09544 26.2784C2.00342 26.1864 1.93782 26.0714 1.90553 25.9453C1.87323 25.8192 1.87541 25.6868 1.91185 25.5618L3.12857 21.3919C3.26537 20.9234 3.51805 20.497 3.86325 20.1519L21.3024 2.71278Z" stroke="#FFFEFB" stroke-width="2.31398" stroke-linecap="round" stroke-linejoin="round"/>
</svg>
