<svg width="16" height="15" viewBox="0 0 16 15" fill="none" xmlns="http://www.w3.org/2000/svg">
<path d="M7.97227 14.1568H14.9727M11.376 1.41768C11.6857 1.10804 12.1056 0.934082 12.5435 0.934082C12.9814 0.934082 13.4014 1.10804 13.711 1.41768C14.0207 1.72732 14.1946 2.14729 14.1946 2.58519C14.1946 3.02309 14.0207 3.44306 13.711 3.7527L4.3694 13.0951C4.18435 13.2801 3.95562 13.4155 3.70436 13.4887L1.47046 14.1405C1.40353 14.16 1.33258 14.1612 1.26505 14.1439C1.19751 14.1266 1.13586 14.0914 1.08657 14.0421C1.03727 13.9928 1.00213 13.9312 0.984824 13.8637C0.967521 13.7961 0.968691 13.7252 0.988213 13.6583L1.64003 11.4243C1.71331 11.1734 1.84867 10.9449 2.0336 10.7601L11.376 1.41768Z" stroke="white" stroke-width="1.23963" stroke-linecap="round" stroke-linejoin="round"/>
</svg>
