<svg width="86" height="86" viewBox="0 0 86 86" fill="none" xmlns="http://www.w3.org/2000/svg">
<rect width="86" height="86" fill="#B2B2B2"/>
<path d="M50.7778 33H35.2222C33.9949 33 33 33.9949 33 35.2222V50.7778C33 52.0051 33.9949 53 35.2222 53H50.7778C52.0051 53 53 52.0051 53 50.7778V35.2222C53 33.9949 52.0051 33 50.7778 33Z" stroke="white" stroke-width="1.5" stroke-linecap="round" stroke-linejoin="round"/>
<path d="M39.1111 40.7777C40.0316 40.7777 40.7778 40.0315 40.7778 39.111C40.7778 38.1905 40.0316 37.4443 39.1111 37.4443C38.1906 37.4443 37.4444 38.1905 37.4444 39.111C37.4444 40.0315 38.1906 40.7777 39.1111 40.7777Z" fill="white"/>
<path d="M52.9999 46.7474C52.9999 46.4822 52.8946 46.2279 52.7071 46.0403L48.1515 41.4848C47.761 41.0942 47.1278 41.0942 46.7373 41.4848L35.2222 52.9999H51C52.1999 52.9999 52.9999 52.4999 52.9999 50.9999V46.7474Z" fill="white"/>
</svg>
