<svg width="13" height="16" viewBox="0 0 13 16" fill="none" xmlns="http://www.w3.org/2000/svg">
<path d="M0.6 6.66751C0.6 2.96753 3.40064 0.6 6.5 0.6C9.59936 0.6 12.4 2.96753 12.4 6.66751C12.4 7.80533 11.9612 9.09833 11.0066 10.5606C10.0533 12.0209 8.60718 13.6164 6.64949 15.347C6.56682 15.4177 6.4411 15.4177 6.35848 15.3469C4.39666 13.6162 2.94852 12.0207 1.99422 10.5604C1.03874 9.09822 0.6 7.80528 0.6 6.66751ZM4.275 6.50489C4.275 7.73026 5.27445 8.73111 6.5 8.73111C7.72555 8.73111 8.725 7.73026 8.725 6.50489C8.725 5.27952 7.72555 4.27867 6.5 4.27867C5.27445 4.27867 4.275 5.27952 4.275 6.50489Z" stroke="#487153" stroke-width="1.2"/>
</svg>
