<svg width="15" height="15" viewBox="0 0 15 15" fill="none" xmlns="http://www.w3.org/2000/svg">
<path d="M13.7284 10.5489V12.4689C13.7291 12.6471 13.6926 12.8235 13.6212 12.9868C13.5498 13.1502 13.4451 13.2968 13.3137 13.4173C13.1824 13.5378 13.0273 13.6295 12.8585 13.6866C12.6896 13.7437 12.5107 13.7649 12.3332 13.7489C10.3638 13.5349 8.47207 12.8619 6.80999 11.7841C5.26364 10.8014 3.95261 9.49041 2.96999 7.94406C1.88838 6.27443 1.21527 4.3735 1.00519 2.39526C0.989201 2.21828 1.01023 2.03991 1.06695 1.8715C1.12368 1.70309 1.21484 1.54834 1.33464 1.4171C1.45445 1.28586 1.60027 1.181 1.76282 1.1092C1.92537 1.0374 2.10109 1.00023 2.27879 1.00006H4.19879C4.50939 0.997005 4.8105 1.10699 5.046 1.30952C5.2815 1.51205 5.43532 1.79331 5.47879 2.10086C5.55983 2.7153 5.71012 3.31861 5.92679 3.89926C6.0129 4.12833 6.03154 4.37729 5.98049 4.61663C5.92945 4.85596 5.81087 5.07565 5.63879 5.24966L4.82599 6.06246C5.73707 7.66473 7.06373 8.99139 8.66599 9.90246L9.47879 9.08966C9.6528 8.91759 9.87249 8.79901 10.1118 8.74796C10.3512 8.69692 10.6001 8.71555 10.8292 8.80166C11.4098 9.01833 12.0132 9.16862 12.6276 9.24966C12.9385 9.29352 13.2224 9.45011 13.4254 9.68966C13.6283 9.9292 13.7362 10.235 13.7284 10.5489Z" stroke="#487153" stroke-width="1.2" stroke-linecap="round" stroke-linejoin="round"/>
</svg>
