<svg width="25" height="24" viewBox="0 0 25 24" fill="none" xmlns="http://www.w3.org/2000/svg">
<path d="M19.7222 19.9998V18.2221C19.7222 17.2791 19.3476 16.3747 18.6808 15.7079C18.014 15.0411 17.1097 14.6665 16.1667 14.6665H9.05556C8.11256 14.6665 7.20819 15.0411 6.5414 15.7079C5.8746 16.3747 5.5 17.2791 5.5 18.2221V19.9998" fill="#487153"/>
<path d="M19.7222 19.9998V18.2221C19.7222 17.2791 19.3476 16.3747 18.6808 15.7079C18.014 15.0411 17.1097 14.6665 16.1667 14.6665H9.05556C8.11256 14.6665 7.20819 15.0411 6.5414 15.7079C5.8746 16.3747 5.5 17.2791 5.5 18.2221V19.9998" stroke="#487153" stroke-width="1.5" stroke-linecap="round" stroke-linejoin="round"/>
<path d="M12.6111 11.1111C14.5748 11.1111 16.1667 9.51924 16.1667 7.55556C16.1667 5.59188 14.5748 4 12.6111 4C10.6474 4 9.05554 5.59188 9.05554 7.55556C9.05554 9.51924 10.6474 11.1111 12.6111 11.1111Z" fill="#487153" stroke="#487153" stroke-width="1.5" stroke-linecap="round" stroke-linejoin="round"/>
<path d="M19.8 20H5.5" stroke="#487153" stroke-width="1.5"/>
</svg>
