<svg width="20" height="20" viewBox="0 0 20 20" fill="none" xmlns="http://www.w3.org/2000/svg">
<path d="M9.10387 3.2923H3.18975C2.7416 3.2923 2.31181 3.47032 1.99492 3.78721C1.67803 4.1041 1.5 4.5339 1.5 4.98205V16.8103C1.5 17.2584 1.67803 17.6882 1.99492 18.0051C2.31181 18.322 2.7416 18.5 3.18975 18.5H15.018C15.4661 18.5 15.8959 18.322 16.2128 18.0051C16.5297 17.6882 16.7077 17.2584 16.7077 16.8103V10.8962" stroke="#FDFDFD" stroke-width="1.2" stroke-linecap="round" stroke-linejoin="round"/>
<path d="M15.4408 2.02494C15.7769 1.68883 16.2327 1.5 16.7081 1.5C17.1834 1.5 17.6393 1.68883 17.9754 2.02494C18.3115 2.36105 18.5003 2.81691 18.5003 3.29225C18.5003 3.76758 18.3115 4.22345 17.9754 4.55956L9.94908 12.5859L6.56958 13.4307L7.41445 10.0512L15.4408 2.02494Z" stroke="#FDFDFD" stroke-width="1.2" stroke-linecap="round" stroke-linejoin="round"/>
</svg>
